<?xml version="1.0" encoding="UTF-8"?>
<svg width="800px" height="800px" viewBox="0 0 24 24" version="1.1" xmlns="http://www.w3.org/2000/svg">
    <g stroke="none" stroke-width="1" fill="none" fill-rule="evenodd">
        <rect x="0" y="0" width="24" height="24"/>
        <path d="M21,3 L3,3 C2.4,3 2,3.4 2,4 L2,20 C2,20.6 2.4,21 3,21 L21,21 C21.6,21 22,20.6 22,20 L22,4 C22,3.4 21.6,3 21,3 Z" fill="#1a56db"/>
        <path d="M5,5 L19,5 L19,7 L5,7 L5,5 Z M5,9 L19,9 L19,11 L5,11 L5,9 Z M5,13 L13,13 L13,15 L5,15 L5,13 Z" fill="#ffffff"/>
    </g>
</svg>
